<svg xmlns="http://www.w3.org/2000/svg" viewBox="0 0 354.5 235.5"><title>logo</title><g id="Warstwa_2" data-name="Warstwa 2"><g id="Warstwa_1-2" data-name="Warstwa 1"><path d="M24.41,78.53H23.22a12.14,12.14,0,0,1-10.41-5.37,21.59,21.59,0,0,1-6.25-11.6v-.87q0-5.73,12.5-18.75,0-.6-.75-.6c-3,.4-4.63.6-4.9.6H12.22q-3.87,0-7.16-3.57Q0,34.44,0,29.16.75,21.69,18.16,5.34L24.09.91l2.1-.6h2.37c.21,0,.31.1.31.28,1-.18,1.47-.38,1.47-.59A50.54,50.54,0,0,0,36,2.09a17.52,17.52,0,0,0,4.16,4.47v.88c-1.34,1.25-4,2.63-8,4.15q-4.27,1.9-10.68,8.94-7.23,6.91-8,10.69l.59.31q16.85-2.69,21.69-2.69,8.75,0,20.25,6.25a27.4,27.4,0,0,1,1.77,2.12q3.52-2.52,14.63-6l5.94-2.38q0-4,3.28-23.5c.21-.79,1.2-1.18,3-1.18a75.93,75.93,0,0,0,7.16,4.15q1.5,1,2.65,5.06v.91l-1.18,4.44h.31a27.5,27.5,0,0,0-1.19,6,.24.24,0,0,1,.28.28q19.5-5.07,34.81-9.5c0,.58.1.87.29.87l2.09-.28c-2.58,2.11-3.88,3.29-3.88,3.56v.6l.6.87v.6q0,2.4-4.16,2.4l-14.56,4.44c-.54.54-2.82,1.64-6.84,3.28l-.32.6c0,.39.5.59,1.5.59v.91q0,.87-10.72,4.15-2.66,0-2.65,29.75L89,69.87a4.56,4.56,0,0,0-1.47,3.57,4.84,4.84,0,0,1,.59,2.37L87.81,77a3.46,3.46,0,0,1,.6,1.78v.6c-.86,1.54-1.56,2.42-2.1,2.65H85.12c-.52-.58-2.1-1-4.75-1.19q-2.09,0-2.09-18.71c-.31-7.34-.6-11-.87-11a2.54,2.54,0,0,0,.28-.91c0-.54-.1-2.52-.28-5.94q-3.48.57-8.63,5.35H67.59c-3.37-1.09-5.06-2.18-5.06-3.29a9.05,9.05,0,0,1-3.69-3.15,4.43,4.43,0,0,1,.07.81q0,7.56-6.85,15.75c0,.38-1.69,2.06-5.06,5.06q-6.95,8.28-11.59,10.1l-5.07,2.68-.59-.28A10.66,10.66,0,0,1,24.41,78.53ZM18.16,67.81Q29.62,64,31.84,60.37A62.62,62.62,0,0,0,44.91,46.69q3-5.22,3-7.44v-.59a22.53,22.53,0,0,0-3-.6l-.6.31-.59-.31q-22.29,1.63-22.28,5.66l-.32,3H22V47a16.52,16.52,0,0,0,.28,3q0,.84-3.87,8a4.76,4.76,0,0,1-.6,2.09,35.27,35.27,0,0,1,.32,4.28c0,.32.09.47.28.47a8.44,8.44,0,0,0-.88,2.66C18,67.5,18.16,67.6,18.16,67.81Zm2.09,2.1a45.27,45.27,0,0,0,12.19-6.57c1.77-1.52,2.65-2.4,2.65-2.65Q25.63,67.79,18.75,69l-.31.59A18.17,18.17,0,0,1,20.25,69.91ZM126.91,94.28h-.6Q119.88,90,118.56,88c-.39,0-.69-.59-.87-1.78a21,21,0,0,0,2.37-5.34,4.09,4.09,0,0,0,2.06-3.29c0-.7-.59-1.5-1.78-2.37a18,18,0,0,1-1.78-4.47V69.59q0-1.09,6.85-1.78,1.71-1.07,2.37-4.75,4.47-11.65,7.75-22.31c.46,0,1.05-1.41,1.78-4.16.46,0,.86-1,1.19-3,.65,0,1-1.19,1.19-3.59a75.93,75.93,0,0,0,4.47-9.81q4.47-8.62,6.81-8.63l1.81.32a7.52,7.52,0,0,1,2.66-1.5q0,.43.9.9a2.68,2.68,0,0,0,1.47-.31c2,0,3,.4,3,1.19l2.06-.28,1.79,1.46a2.17,2.17,0,0,1-.29.91l1.79,9.22v.59q0,23.19-2.1,27.66a10.83,10.83,0,0,0-.28,2.69v.28A105.77,105.77,0,0,0,176,50.56c.52.09.92.59,1.19,1.5q0,3.38-5.07,6.53-3,.6-3,1.5h.6V61q-4.72,2.37-5.35,2.37v1.5a6.73,6.73,0,0,0-3.56,6.25q0,1.78-2.09,7.13l-3,6.25a5.37,5.37,0,0,1-1.19,1.78L154,86h-.31q-1.41,0-5.66,4.15c0,1-.29,1.47-.88,1.47q-1.5-.5-1.5-1.47a23,23,0,0,1,.6-5.37l-.28-.59q.87-6.25,1.78-10.41l-.6-.28q-8,2.46-8,3.56a141.1,141.1,0,0,0-5.34,14.28A12.77,12.77,0,0,1,126.91,94.28Zm15.43-61a4.46,4.46,0,0,0,1.82-3.87v-.6Q143.47,28.84,142.34,33.31Zm1.82,29.44q5.63-1,5.62-3.84,1.5-13.47,1.5-17.25v-.32H151q-7.12,18.85-7.13,21.41Zm9.5-3.84a30.84,30.84,0,0,0,.9-8.35V48.19l.28-.6-.59-.31-1.19,9.81v1.82Zm-3.29,22.28q1.81-4.64,1.82-6.25a21.1,21.1,0,0,1,.59-3.57h-.59c-.54,0-1.24,3.08-2.1,9.22v.6Zm31.19,35.09H181c-.92-.37-1.42-.77-1.5-1.19v-2.65q0-3.16,5.06-21.13,4.75-12.9,6.84-20.22-10.25-8.28-11.9-29.43-3.84-23.5-5.66-23.5a2,2,0,0,1-1.47-2.1,8.19,8.19,0,0,1,2.07-1.47l5.06,1.78,1.19-.31a12.81,12.81,0,0,1,7.15,7.44,88.69,88.69,0,0,1,3.25,18.75q2.16,20.22,3.6,20.22Q199.4,47.68,208,26.19l6.25-16.66q0-2.59,3.25-3h.31c1.52,1.29,4.1,2.38,7.72,3.25q2.1,1.15,2.1,5.06,0,2.56-3.57,8.94Q223,27.07,219,35.41q-4.91,11.49-5.94,13.37c-.6,0-1,1.19-1.22,3.56-.79,0-1.47,2.09-2.06,6.25a9.07,9.07,0,0,0-2.09,5.94,65.77,65.77,0,0,1-4.16,5.66q-2.69,10.13-5.06,14.28,0,1.19-5.06,15.75-1.38,3-3.85,9.81a20.81,20.81,0,0,0-2.68,4.19h-.29c-.31,0-.7-.4-1.18-1.19l-.63.28h-.28l-.91-.59C183,112.72,182.33,113.91,181.56,116.28Zm20.81-55.59c.36,0,1.06-2.09,2.1-6.25-.56,0-1.37,2.08-2.41,6.25Zm-2.09,7.72,1.78-6.54v-.59q-.87,0-2.37,6.53v.6ZM190.47,94a8.41,8.41,0,0,1,1.5-3.25c1.6-4.77,3-7.16,4.15-7.16a3.43,3.43,0,0,0,.6-1.78l-.6-1.19a41.92,41.92,0,0,0,1.5-5.93v-.91c-.58.21-1.47,2.59-2.68,7.16q-.81.38-3,8.62-2.1,2.88-2.1,4.44ZM155.19,229.25h-.88q-2.69-5.91-2.69-20.53a14.86,14.86,0,0,1,.32-2.38,9.65,9.65,0,0,1-.32-2.65v-1.5l.32-1.78-.32-.6a35.12,35.12,0,0,0,.32-4.15v-2.1Q145.34,201,143,201c-1.19.15-1.78.34-1.78.59q-8-2.18-8-4.15-7.64-10.19-9.22-17.25c-.4-.9-1.19-3.28-2.38-7.16H121q-3,12.06-5.34,23.5a79.83,79.83,0,0,0-3.88,16.38q-1.75,6.84-3.28,6.84l-.59-.31-1.47.31a10.43,10.43,0,0,1-4.19-3.59q-1.56,0-3.56-5.66c0-1.19-.1-1.78-.28-1.78l.28-.6c0-.39-.1-.59-.28-.59q0-11.78,5-43.41l-.28-3.56c.45-1.19,1.15-1.78,2.09-1.78a.24.24,0,0,1,.28.28l1.5-.28h1.47c.79,0,1.78.59,3,1.78.92-1.19,2.6-1.78,5.06-1.78.61-.29.91-.49.91-.59a6,6,0,0,1,2.37,1.47h2.38c0,.54.89,1,2.68,1.5V162q1.57,0,3.85,4.16,2.88,3.5,7.15,20.53,1.17,2.37,1.47,2.37,1.47-1,7.44-9.5l.59.28a14.68,14.68,0,0,1,2.38-3h.59v.59q3.16-3.44,6.57-11.59A92.57,92.57,0,0,0,162,151.62l.31-1.78v-.59l-3.56,4.16h-.31a33.05,33.05,0,0,0,3.56-7.72,3.6,3.6,0,0,1,2.38-1.19c0,.58.19.87.59.87l1.78-.87h1.5q1.22,1.47,1.5,1.47h.28l2.1-.28q2.37,2.59,2.37,4.75a.27.27,0,0,1-.31.31l.31,3V154q0,4.38-5.06,20.53l-2.38,10.13.32.59a112.63,112.63,0,0,0-4.19,14.84l.31.6a25.9,25.9,0,0,1-1.5,5.06c-1,0-1.47,1.39-1.47,4.16a.27.27,0,0,0-.31.31l.31,2.09a17.71,17.71,0,0,0-.31,1.78,2.2,2.2,0,0,1,.31,1.19,3.53,3.53,0,0,0-.59,1.78v2.69l-.6.87v.6a9.86,9.86,0,0,0,.29,2.37,9.94,9.94,0,0,0-.29,2.38v1.19a2,2,0,0,0-.9.31l-.6-.31C157.12,227.26,156.23,228,155.19,229.25Zm-5.35-57.69h-.31V171q0-1.18,3.59-6.85,2.85-6.84,3.57-6.84H157v.31a67.16,67.16,0,0,1-4.75,10.69C151.45,170.11,150.66,171.21,149.84,171.56Zm6.85,23.5q.78,0,1.47-6.25-.34,0-1.79,5.35A2.16,2.16,0,0,1,156.69,195.06Zm37.75,30h-1.78q-8.35-2.09-9.22-3.56-5.07-2.25-8.94-10.47t-3.88-12.75v-3.84q0-13.87,11-30.94Q190,152,196.5,150.16a23.74,23.74,0,0,1,10.56,2.21,10.49,10.49,0,0,1,5.81,6.41v.28q0,1.69-5.65,2.1,0,1-4.75,2.06-1.72,0-6.85,5.06-5.25,5.41-6,8.34a64.1,64.1,0,0,0-5,9.5q-.84.48-2.09,5.94c-.21,0-.41.3-.59.91.6.21.9.4.9.59a10.55,10.55,0,0,0-1.5,5.35v4.18q.78,11.6,5.35,11.6,7.84,0,12.78-4.47,2.63-1.32,7.15-6.25c1,0,1.84-.69,2.38-2.06l-.31-.63q0-1.16,4.18-7.12,4.75-10.64,4.75-14.29,0-7.37-3.87-9.21l-3-1.19h-.59q-2.94,0-12.5,7.75c-1.38,1.64-2.46,2.53-3.25,2.65l-.32-.59q0-1.47,7.75-7.72a2.31,2.31,0,0,1-.31-.9,22.06,22.06,0,0,1,6.53-3.25l1.5.28c1.19,0,1.78-.2,1.78-.6q9.16,2.39,11,4.75,3.1,1.13,5.38,6.85a19.66,19.66,0,0,1,.87,4.75v4.47q0,2.22-3.87,11.9-3.69,9.16-8.63,13.69-6.47,6.15-6.81,8a48.51,48.51,0,0,1-6.56,2.38.25.25,0,0,1-.28.28h-5.06Zm18.43-28.25q2.35,0,4.75-7.15c2-3.5,3-6.08,3-7.72a9.66,9.66,0,0,1-.28-2.1H220q-3,9.34-4.47,13.1c-.89.37-1.38.77-1.47,1.19v.31l.28.59h-.28l-.59-.31a3.33,3.33,0,0,0-.91,2.09Zm3.85,2.66q1.53-.52,4.78-6.53,2.37-6.69,2.37-6.85l-.59-.28-5.37,11a4.69,4.69,0,0,0-1.47,2.66Zm36.47,36c-.82-.17-1.22-.36-1.22-.59l-.6.28q-4.16-.94-4.15-3-4.5-2.25-6.72-9t-5.16-23.69q-.61-1.56-3.59-15.16l-2.06-6.84q0-3.47-3-10.09c-.61-.21-.91-.82-.91-1.82,0-.27.79-.66,2.38-1.18a54,54,0,0,1,5.93,2.4q6.07,0,8.35,11.28a40.34,40.34,0,0,1,2.69,14.57q2.66,11.22,3.84,18.46l.59.29q2.13-4.6,3.28-4.75,1.29-1.78,4.16-8.94a45.29,45.29,0,0,0,3.88-8,11.2,11.2,0,0,0,3-5.94,12.35,12.35,0,0,1,2.1-3,285.05,285.05,0,0,1,14.28-27.66q2-3.21,4.16-7.43l-.32-1.5a10.55,10.55,0,0,1,2.38-.6l-.6,4.16a2.84,2.84,0,0,1,2.1-.88,13.25,13.25,0,0,0-1.78,4.75q-.6.1-.6.6v1.19a9.53,9.53,0,0,0,1.78-1.79h.29v2.1a4,4,0,0,0-1.19,2.65c.39,0,.59.31.59.91a64.74,64.74,0,0,0-2.65,8.31c-.48,0-1.08,1.42-1.79,4.19q-.67,0-2.09,6.53-1.5,2.1-5.06,11.91-.57.06-4.16,8.9l-4.75,12.79q-3,8.18-6.56,16.06c0,3-.89,4.64-2.66,5.06Q257.34,233.53,253.19,235.5Zm2.06-25.88q1.47-.56,5.34-9.81,2.42-1.44,2.41-5.34c1.08-2.88,2.17-4.67,3.25-5.38,0-.68,1.09-2.57,3.28-5.65h.28l-.59-1.19c.79-1.92,1.49-3,2.09-3.25q.92,0,1.78-5.66l.6.28H274c.4,0,.69-.88.87-2.65.55,0,1.24-1.39,2.1-4.16.35,0,.75-.89,1.19-2.69a2.11,2.11,0,0,1,1.18-.59v-.91a5.51,5.51,0,0,1,1.19-3q0-1,3.28-6.25a6.88,6.88,0,0,1,.6-2.38,2,2,0,0,1-.32-.87,39.26,39.26,0,0,0-5.65,9.81A76.16,76.16,0,0,0,271.91,173q-.54,0-2.38,5.06-8.37,16.57-11.31,25-3,5.13-3,6.22ZM311.06,231a5.44,5.44,0,0,1-1.78-.59l-1.78.31-2.09-.31-1.47.31a9,9,0,0,1-5.66-1.78l-.59.28q-3.75-.57-8.63-5.34a71.36,71.36,0,0,1-4.47-7.44,17.13,17.13,0,0,0-1.18-5.66q0-9.72,4.46-23.19c-.22,0-1.91-1.68-5.06-5.06a4.59,4.59,0,0,1-2.06-3.28q0-4.75,15.44-10.69,1.56-5.37,4.18-5.37a2.58,2.58,0,0,0,1.19-.28,25.82,25.82,0,0,0,8,3.56l8.63-1.5.59.31a61.38,61.38,0,0,1,10.1-1.5l21.4-4.15a10.83,10.83,0,0,1,2.69-.88h.91v.28l-.91,1.19h.59v.59l-.59.91h1.5V162q-2.72,3-3.59,3v.59l.31.6q-5.79,4.22-15.47,6-1.38,0-4.75,2.37h-.59l.59-1.19a.27.27,0,0,1-.31-.31l-13.38,3Q306,177.88,306,179.59c-.58.52-1.77,3.3-3.56,8.32h.31a219,219,0,0,0,23.78-11.29c2.19-1.39,3.48-2.09,3.88-2.09v.28q0,1-6.57,4.47l-1.18,1.19H323l1.47-.88a2.53,2.53,0,0,0,1.22.28,10.3,10.3,0,0,1,3.84-2.37,29.09,29.09,0,0,1,4.19-3H334v.28c0,.31-.79,1.61-2.38,3.88q0,1.74-4.15,4.47l-.32.59V184h.32l.59-.28.28.59v.32q-2.19,2.37-3,2.37l.32,1.47q-4.76,4.27-17.57,11.91a40.58,40.58,0,0,0-8.31,6.53q-5.37,3.69-5.37,4.78l-.29,4.15c0,2.59.69,3.88,2.07,3.88L298,220q12.53,0,29.12-8.91,9.54-4.68,9.54-7.15l3.56-3.28a2.31,2.31,0,0,1,.28.9q0,.69-3.56,5.07h.31c1.52,0,2.71-1.59,3.56-4.75l.6-.32h.28v.32a32.49,32.49,0,0,1-.6,3.56h.6c0-.61.26-.91.78-.91s.72.26.72.6a12.1,12.1,0,0,0-2.38,4.75c-.69,0-1.28.69-1.78,2.09a2.34,2.34,0,0,0,.28.91q0,2.63-7.44,8.62-.62,0-9.81,5.34A37.82,37.82,0,0,0,311.06,231Zm28-64.22a17.39,17.39,0,0,0,3-.62v-.28h-.31a37,37,0,0,0-4.16.59v.31ZM137.7,121.56a6.21,6.21,0,0,0,1.41-1.14l-.16-.27c0-.1-.11-.15-.26-.15a4.26,4.26,0,0,0-.88.34c-.48.2-1,.44-1.63.72l-1.75.8a8,8,0,0,1-1.18.42q-.33-1-.72-2.58c-.23-1.07-.48-2.28-.76-3.65-.07-.38-.25-.57-.53-.57a.65.65,0,0,0-.49.26,1.14,1.14,0,0,0-.19.73s.05.4.15,1.06.25,1.38.38,2.17.34,2,.57,3.11l-.65.31-1.56.76c-.6.3-1.26.64-2,1s-1.41.75-2,1.1a15.28,15.28,0,0,0-1.55,1c-.43.28-.65.5-.65.65a1.13,1.13,0,0,0,.3.76,1,1,0,0,0,.8.34,2.6,2.6,0,0,0,.69-.3c.35-.23.78-.5,1.29-.8l1.63-1c.59-.38,1.14-.72,1.67-1s1-.6,1.41-.8a2.4,2.4,0,0,1,.91-.34s.09.17.19.53c.23.83.43,1.61.61,2.32s.3,1.2.46,1.78.25,1,.3,1.29a14.23,14.23,0,0,1,.23,2.09,1.29,1.29,0,0,1,0,.35V133a1.35,1.35,0,0,0,.08.35,2.88,2.88,0,0,0,.22.49,3.54,3.54,0,0,0,.35.42.58.58,0,0,0,.41.19c.28,0,.49-.21.61-.61a3.87,3.87,0,0,0,.19-1.18s0-.19-.07-.49-.12-.7-.19-1.1-.12-.82-.19-1.22-.14-.74-.19-1c-.1-.43-.23-.92-.38-1.48s-.31-1.09-.46-1.6-.24-1-.34-1.36a4.35,4.35,0,0,1-.15-.69c0-.07.22-.21.68-.42l1.6-.79C136.48,122.24,137.09,121.91,137.7,121.56Zm12.21,4.9a.59.59,0,0,0,.23-.46.41.41,0,0,0-.19-.38.79.79,0,0,0-.27-.19,3.58,3.58,0,0,0-1-.22,9.59,9.59,0,0,0-1.52-.08,4.45,4.45,0,0,0-1.86.34,3.13,3.13,0,0,1-1.11.34.33.33,0,0,1-.26-.11l-.15-.3a1.27,1.27,0,0,0-.19-.31.37.37,0,0,0-.31-.15.61.61,0,0,0-.45.27,2.21,2.21,0,0,0-.42.72,4.57,4.57,0,0,0-.31,1,6.75,6.75,0,0,0-.11,1.22,13.39,13.39,0,0,0,.15,1.67c.1.74.23,1.48.38,2.24a13.53,13.53,0,0,0,.61,1.94c.25.53.53.8.84.8a.84.84,0,0,0,.57-.34,1,1,0,0,0,.34-.65,1,1,0,0,0-.12-.45c-.05-.18-.11-.42-.19-.73s-.11-.69-.19-1.17-.07-1.13-.07-1.94a8.45,8.45,0,0,1,.07-1.22,1.65,1.65,0,0,1,1.33-1.37,6.21,6.21,0,0,1,1.52-.15.94.94,0,0,1,.31.08,2.49,2.49,0,0,0,.76.07l.49,0,.61-.19A2.91,2.91,0,0,0,149.91,126.46Zm20.69,4.94a3.4,3.4,0,0,0,.64-1.71.43.43,0,0,0-.49-.49c-.2,0-.46.24-.76.72a14.37,14.37,0,0,1-1.25,1.56A9.23,9.23,0,0,1,166.8,133a5.34,5.34,0,0,1-2.81.69,4.21,4.21,0,0,1-2.13-.46,4,4,0,0,1-1.26-1.21,4.83,4.83,0,0,1-.6-1.71,12.49,12.49,0,0,1-.16-1.94,2.33,2.33,0,0,1,0-.38,2.6,2.6,0,0,0,0-.5,1.25,1.25,0,0,0-.11-.6.45.45,0,0,0-.27-.27.76.76,0,0,0-.38-.15,1.54,1.54,0,0,1-.38-.23v-1.14a1.64,1.64,0,0,0-.15-.68.49.49,0,0,0-.53-.38,2.42,2.42,0,0,0-1.94,1.06,10.12,10.12,0,0,0-1.33,2.43,16.3,16.3,0,0,0-.8,2.66,10.06,10.06,0,0,0-.27,1.71s0,.27.08.65a7.63,7.63,0,0,0,.27,1.21,5.3,5.3,0,0,0,.49,1.14,1,1,0,0,0,.84.5,1.5,1.5,0,0,0,.95-.38,6.35,6.35,0,0,0,.83-1c.26-.38.48-.75.69-1.1a3.77,3.77,0,0,1,.57-.76,4,4,0,0,0,.83,1.44,6.63,6.63,0,0,0,1.29,1.06,7,7,0,0,0,1.49.65,5,5,0,0,0,1.44.23,7,7,0,0,0,2.93-.65,10.8,10.8,0,0,0,2.47-1.63A9.11,9.11,0,0,0,170.6,131.4Zm-12.77-3.65a.5.5,0,0,1,.08.27,6,6,0,0,1-.57,2.47c-.36.83-.75,1.69-1.18,2.58a1.78,1.78,0,0,1-.34-.8,4.29,4.29,0,0,1-.16-.87,5.67,5.67,0,0,1,.19-1.25,11.36,11.36,0,0,1,.5-1.56,12.54,12.54,0,0,1,.68-1.33,1.43,1.43,0,0,1,.72-.65.22.22,0,0,0,.08.15.17.17,0,0,1,.08.16.56.56,0,0,1-.08.3.48.48,0,0,0-.08.27A.63.63,0,0,0,157.83,127.75Zm20.68-.57c.13-.73.26-1.39.38-2a9.62,9.62,0,0,0,.19-1,.71.71,0,0,0-.45-.65,1.55,1.55,0,0,0-.65-.26.93.93,0,0,0-.61.19,1.68,1.68,0,0,0-.38.45,2.65,2.65,0,0,0-.15.57c0,.2,0,.38,0,.53s0,.57-.07,1.11-.08,1.08-.15,1.67-.11,1.14-.16,1.67-.08.85-.11,1-.06.44-.11.72a1.53,1.53,0,0,1-.19.57,4.67,4.67,0,0,1-1.33-1.71c-.28-.69-.54-1.33-.76-1.94a10.82,10.82,0,0,0-.65-1.56.94.94,0,0,0-.87-.64.77.77,0,0,0-.35.15.32.32,0,0,0-.19.26,9.75,9.75,0,0,0,.31,2.4,10.91,10.91,0,0,0,.87,2.28,10.36,10.36,0,0,0,1.37,2,10.17,10.17,0,0,0,1.75,1.6,1.34,1.34,0,0,0,.76.3.68.68,0,0,0,.57-.26,2.27,2.27,0,0,0,.26-.65,1.94,1.94,0,0,0,.12-.64c0-.23,0-.37,0-.42a23.89,23.89,0,0,1,.22-3.84C178.31,128.26,178.44,127.61,178.51,127.18ZM193,133.83a.47.47,0,0,0,0-.23.47.47,0,0,0-.19-.22.33.33,0,0,0-.23-.12,2,2,0,0,0-.57.27l-1,.53c-.38.18-.8.35-1.26.53a3.68,3.68,0,0,1-1.21.23,4.2,4.2,0,0,1-1.56-.3,4.43,4.43,0,0,1-1.33-.84,4.85,4.85,0,0,1-.95-1.37,4.45,4.45,0,0,1-.34-1.78,7.44,7.44,0,0,1,.3-2.17,7.09,7.09,0,0,1,.76-1.75,4.57,4.57,0,0,1,.95-1.18,1.4,1.4,0,0,1,.87-.45c.56,0,.9.1,1,.3a.84.84,0,0,1-.3,1.33,6.08,6.08,0,0,1-1,.61,7,7,0,0,0-1.06.53,1,1,0,0,0-.31,1.37.58.58,0,0,0,.42.19,3.2,3.2,0,0,0,1.14-.3,10.74,10.74,0,0,0,1.44-.84,6.73,6.73,0,0,0,1.22-1.14,1.81,1.81,0,0,0,.53-1.18,1.72,1.72,0,0,0-.3-.95,2.89,2.89,0,0,0-.84-.87,3.89,3.89,0,0,0-1.14-.61,3,3,0,0,0-1.21-.27,2.29,2.29,0,0,0-1.41.57,6,6,0,0,0-1.33,1.56,10.35,10.35,0,0,0-.95,2.28,9.94,9.94,0,0,0-.38,2.78,8.11,8.11,0,0,0,.42,2.73,6.77,6.77,0,0,0,1.06,1.94,4.74,4.74,0,0,0,1.48,1.18,4.16,4.16,0,0,0,1.71.38,7.7,7.7,0,0,0,2.17-.27,8.26,8.26,0,0,0,1.6-.61,4.62,4.62,0,0,0,1-.68,4.66,4.66,0,0,0,.5-.49A1.5,1.5,0,0,0,193,133.83Zm7.47,3.12a.53.53,0,0,0,.23-.46l-1.52-6.31c-.2-.86-.38-1.64-.53-2.35s-.24-1.38-.35-2-.16-1.31-.26-2l-.27-2.21c-.07-.58-.14-1.25-.19-2a21.53,21.53,0,0,0-.26-2.24,7.37,7.37,0,0,0-.46-1.79c-.18-.48-.44-.72-.8-.72s-.45.18-.53.53a4.1,4.1,0,0,0-.11.88c.17,2.15.34,4,.49,5.43s.33,2.62.46,3.53.26,1.59.34,2a5.1,5.1,0,0,1,.15.8c0,.05,0,.3.11.76l.38,1.71c.16.65.33,1.38.54,2.16s.41,1.47.64,2.13a11.57,11.57,0,0,0,.69,1.63c.25.43.49.65.72.65A.94.94,0,0,0,200.51,137Zm8,0a.52.52,0,0,0,.22-.46l-1.52-6.31c-.2-.86-.38-1.64-.53-2.35s-.24-1.38-.34-2-.16-1.31-.27-2-.16-1.4-.26-2.21c-.08-.58-.14-1.25-.19-2a19.07,19.07,0,0,0-.27-2.24,7.4,7.4,0,0,0-.45-1.79c-.18-.48-.45-.72-.8-.72s-.46.18-.53.53a4.21,4.21,0,0,0-.12.88c.18,2.15.34,4,.5,5.43s.33,2.62.45,3.53.27,1.59.34,2a4.46,4.46,0,0,1,.16.8c0,.05,0,.3.11.76l.38,1.71c.15.65.33,1.38.53,2.16s.42,1.47.65,2.13a11.66,11.66,0,0,0,.68,1.63c.26.43.5.65.72.65A1,1,0,0,0,208.53,137Zm5.16-16.53c.18-.15.27-.26.27-.31s-.12-.29-.34-.41a3.81,3.81,0,0,0-.73-.35,4.84,4.84,0,0,0-.83-.22,2.27,2.27,0,0,0-.5-.12,1.18,1.18,0,0,0-1,.5,1.46,1.46,0,0,0-.38,1,.84.84,0,0,0,.19.57,1.53,1.53,0,0,0,.41.31,3.05,3.05,0,0,0,.5.15h.42a1.39,1.39,0,0,0,.6-.19,7.33,7.33,0,0,0,.73-.42C213.3,120.73,213.51,120.57,213.69,120.42Zm1.1,14.36q.42-.19.42-.45a5.18,5.18,0,0,0-.15-.73c-.08-.43-.19-.92-.34-1.48s-.33-1.19-.53-1.82a13.13,13.13,0,0,0-.69-1.79,7.18,7.18,0,0,0-.72-1.37c-.25-.35-.49-.53-.72-.53s-.38.15-.53.46a2.46,2.46,0,0,0-.19,1,2.78,2.78,0,0,0,.11.41c.08.26.16.55.27.88l.38,1c.12.36.22.66.3.92s.13.43.23.83.23.79.38,1.22a6,6,0,0,0,.53,1.14.83.83,0,0,0,.68.49A1.37,1.37,0,0,0,214.79,134.78Zm14.07-1.4a.8.8,0,0,0,.16-.46.89.89,0,0,0-.16-.34c-.07-.18-.16-.27-.26-.27a1.1,1.1,0,0,0-.38.12,1.82,1.82,0,0,1-.5.07,3.58,3.58,0,0,1-1.17-.23,3.3,3.3,0,0,1-1.18-.72,4.25,4.25,0,0,1-.91-1.06,7.18,7.18,0,0,1-.5-1.29c-.1-.46-.19-1-.26-1.52s-.18-1.25-.31-2a1.16,1.16,0,0,0-.38-.61,1.08,1.08,0,0,0-.61-.15c-.22,0-.45.27-.68.8a13.9,13.9,0,0,0-.68,1.9c-.23.73-.47,1.52-.73,2.35a13.76,13.76,0,0,1-.76,2.13,1.6,1.6,0,0,1-.19-.49c0-.23,0-.41,0-.53v-6c0-.28,0-.53,0-.76s-.13-.34-.31-.34a.88.88,0,0,0-.57.23,1.46,1.46,0,0,0-.26.3,3.45,3.45,0,0,0-.23,1.1c0,.41,0,.74,0,1,0,.53,0,1.22,0,2l.15,2.44q.08,1.17.12,2.16c.05.63.07,1,.07,1.22a.73.73,0,0,0,.31.53.88.88,0,0,0,.57.27.29.29,0,0,0,.22-.08,8.19,8.19,0,0,0,1.75-3c.38-1.09.71-2.19,1-3.31a19.34,19.34,0,0,0,1.1,2.66,7.11,7.11,0,0,0,1.14,1.52,3.74,3.74,0,0,0,1.6.91,6.85,6.85,0,0,0,1.67.27,1,1,0,0,0,.42-.11,2.06,2.06,0,0,0,.45-.35A1.63,1.63,0,0,0,228.86,133.38Zm11.24,1.44a.58.58,0,0,0,.3-.57,1.39,1.39,0,0,0-.19-.34,1,1,0,0,0-.34-.46l-.19.19a.35.35,0,0,0-.15.15,1.36,1.36,0,0,1-.16-.34l-.11-.34a4.56,4.56,0,0,1-.11-.46c0-.25-.07-.52-.12-.79a7.83,7.83,0,0,0-.11-.88c0-.3,0-.53,0-.68v-.38a5.92,5.92,0,0,0,0-.76v-.91c0-.33,0-.61,0-.84a1.32,1.32,0,0,0-.27-.84,1,1,0,0,0-.87-.38c-.41,0-.66.23-.76.69a6.73,6.73,0,0,0-.16,1.63v1.07c0,.32,0,.63,0,.91a4.51,4.51,0,0,1-.07.87c0,.08-.13.31-.31.69s-.39.78-.64,1.21a9.41,9.41,0,0,1-.76,1.14c-.26.33-.5.5-.73.5-.48,0-.93-.33-1.36-1a5.62,5.62,0,0,1-.65-3,11.24,11.24,0,0,1,.23-2.05,13.63,13.63,0,0,1,.72-2.24,6.16,6.16,0,0,1,1.1-1.82,2,2,0,0,1,1.52-.76.62.62,0,0,1,.34.07,2.18,2.18,0,0,1,.27.15,1.47,1.47,0,0,0,.3-.38.89.89,0,0,0,.12-.49q0-.35-.57-.57a3,3,0,0,0-1.18-.23,2.73,2.73,0,0,0-2,.88,7,7,0,0,0-1.41,2,11.3,11.3,0,0,0-.84,2.54,11.65,11.65,0,0,0-.26,2.17,11.2,11.2,0,0,0,.3,2.74,7.76,7.76,0,0,0,.88,2,3.82,3.82,0,0,0,1.21,1.25,2.6,2.6,0,0,0,1.37.42,1.75,1.75,0,0,0,1.06-.3,3.19,3.19,0,0,0,.76-.8,8.2,8.2,0,0,0,.61-1,5.36,5.36,0,0,1,.69-1l.41,1.25a3.6,3.6,0,0,1-.72.88,22.56,22.56,0,0,0-1.59,1.9,15.92,15.92,0,0,0-1.6,2.54,6.14,6.14,0,0,0-.72,2.81,7.93,7.93,0,0,0,.11.92,4.43,4.43,0,0,0,.53,1.44,4.24,4.24,0,0,0,1.22,1.29,3.91,3.91,0,0,0,2.24.57,3.23,3.23,0,0,0,1.64-.42,4.11,4.11,0,0,0,1.21-1.06,4.94,4.94,0,0,0,.76-1.48,5.31,5.31,0,0,0,.27-1.64,12.48,12.48,0,0,0-.08-1.44,9.7,9.7,0,0,0-.23-1.29,11.86,11.86,0,0,0-.34-1.41c-.12-.51-.28-1.1-.45-1.78-.11-.33-.22-.65-.35-1a2.35,2.35,0,0,1-.15-.42A.46.46,0,0,1,240.1,134.82Zm-1.33,3c.12.4.24.81.34,1.22s.14.6.19.83a5.1,5.1,0,0,1,.15.76,8,8,0,0,1,.11,1c0,.36,0,.8,0,1.33a2.23,2.23,0,0,1-.8,1.86,2.47,2.47,0,0,1-1.63.65,2,2,0,0,1-1.48-.76,2.9,2.9,0,0,1-.65-1.94,5.17,5.17,0,0,1,.27-1.67,8.29,8.29,0,0,1,.76-1.48c.33-.48.68-1,1.06-1.48s.83-1,1.26-1.52C238.51,137,238.64,137.45,238.77,137.86Zm21.58-8.25a2.59,2.59,0,0,0,.61-1.48.31.31,0,0,0-.15-.26,2,2,0,0,0-.23-.16c-.3.43-.65.88-1,1.33a10.35,10.35,0,0,1-1.21,1.18,7.5,7.5,0,0,1-1.29.84,3.43,3.43,0,0,1-1.37.3,1,1,0,0,1-.42-.15,3.68,3.68,0,0,1-.46-.38,4.36,4.36,0,0,1-.41-.46.71.71,0,0,1-.16-.41,2,2,0,0,0-.07-.46,2,2,0,0,0-.19-.61,1.51,1.51,0,0,0-.42-.57,1,1,0,0,0-.65-.23c-.17,0-.34.16-.49.46s-.25.65-.38,1-.27.74-.42,1.1a1,1,0,0,1-.49.61.62.62,0,0,1-.12-.23v-.27a2.57,2.57,0,0,1,.27-.95c.18-.4.38-.82.61-1.25a13.52,13.52,0,0,1,.8-1.22,6.53,6.53,0,0,1,.76-1,3.12,3.12,0,0,1,.3-.26c.15-.13.23-.23.23-.31a.53.53,0,0,0-.27-.45.84.84,0,0,0-.57-.23c-.28,0-.63.23-1.06.68a10,10,0,0,0-1.18,1.67,14,14,0,0,0-1,2,4.82,4.82,0,0,0-.42,1.78,2.54,2.54,0,0,0,.35,1.18,1.15,1.15,0,0,0,1,.65,1.13,1.13,0,0,0,.57-.19,3.48,3.48,0,0,0,.57-.46,4.92,4.92,0,0,0,.53-.61,4.78,4.78,0,0,0,.42-.53c.18.15.39.33.65.53s.54.35.8.5a7,7,0,0,0,.79.38,2.15,2.15,0,0,0,.69.15,3.21,3.21,0,0,0,1.44-.49,11.61,11.61,0,0,0,1.67-1.26A10.28,10.28,0,0,0,260.35,129.61Zm0-8.55s.08,0,.08-.15v-.72a.79.79,0,0,0-.34-.61,3.18,3.18,0,0,0-.92-.53,5,5,0,0,0-1.25-.34,7.93,7.93,0,0,0-1.37-.12,7.09,7.09,0,0,0-2.35.5,15.41,15.41,0,0,0-2.78,1.4,19.68,19.68,0,0,0-2.81,2.17,17,17,0,0,0-2.47,2.85,15,15,0,0,0-1.79,3.42,11.42,11.42,0,0,0-.64,3.84,9.71,9.71,0,0,0,.53,3.38,6.87,6.87,0,0,0,1.44,2.24,5,5,0,0,0,2,1.29,6.13,6.13,0,0,0,2.2.42,6.64,6.64,0,0,0,1.52-.19,7.32,7.32,0,0,0,1.6-.45,4.63,4.63,0,0,0,1.25-.73,1.22,1.22,0,0,0,.5-.95q0-.3-.27-.3a1.4,1.4,0,0,0-.53.19,6.75,6.75,0,0,1-1,.46,9.1,9.1,0,0,1-1.37.41,6,6,0,0,1-1.74.23,4.34,4.34,0,0,1-2.4-.61,4.45,4.45,0,0,1-1.44-1.52,6.42,6.42,0,0,1-.76-1.93,9.51,9.51,0,0,1-.23-1.94,8.57,8.57,0,0,1,.61-3.19,13.76,13.76,0,0,1,1.59-3,18.55,18.55,0,0,1,2.28-2.62,19,19,0,0,1,2.55-2.09,13.08,13.08,0,0,1,2.55-1.4,5.79,5.79,0,0,1,2.12-.5,5.62,5.62,0,0,1,2.21.38,5.84,5.84,0,0,1,1.29.65A.21.21,0,0,0,260.35,121.06Zm15.78,9.73a.82.82,0,0,0-.19-.23,1.49,1.49,0,0,0-.38-.22.62.62,0,0,0-.27-.12.93.93,0,0,0-.72.46c-.17.25-.31.38-.42.38s-.4-.17-.6-.5a5.79,5.79,0,0,1-.54-1.17c-.15-.49-.29-1-.41-1.45s-.18-.91-.23-1.21a2.85,2.85,0,0,1-.08-.57c0-.18-.12-.32-.38-.42a2.09,2.09,0,0,1-.49-.19.93.93,0,0,0-.5-.12c-.17,0-.39.26-.64.76s-.48,1-.76,1.71-.51,1.31-.76,1.94-.42,1.1-.57,1.41a.84.84,0,0,1-.19-.34c-.05-.16-.1-.32-.15-.5a2.07,2.07,0,0,0-.12-.45c0-.16,0-.27,0-.35s-.07-.47-.15-.87-.11-.91-.19-1.44l-.23-1.68c-.05-.58-.11-1.11-.19-1.59s-.1-.93-.15-1.26-.07-.5-.07-.53c0-.35-.12-.81-.19-1.37s-.17-1.17-.27-1.78-.19-1.21-.27-1.79-.07-1.06-.07-1.44A5.94,5.94,0,0,1,266,115a6,6,0,0,0,.08-1.07,2.47,2.47,0,0,0-.08-.53,3.54,3.54,0,0,0-.26-.8,2.72,2.72,0,0,0-.38-.72.62.62,0,0,0-.5-.34c-.15,0-.29.12-.41.38a3.93,3.93,0,0,0-.23.87c-.05.33-.09.63-.12.91s0,.45,0,.5c0,.88,0,1.63.07,2.24s.12,1.15.19,1.63.14.93.19,1.33a12.58,12.58,0,0,1,.19,1.3c.18,2.28.4,4.21.65,5.81s.42,2.74.49,3.42c0,.3.09.73.19,1.29a11.8,11.8,0,0,0,.42,1.6,6.26,6.26,0,0,0,.76,1.37,1.51,1.51,0,0,0,1.18.57c.07,0,.23-.27.45-.8s.51-1.16.76-1.79.54-1.25.76-1.78.38-.84.46-.84.1.09.15.27q.12.53.27,1.14a5.39,5.39,0,0,0,.49,1.06,3.35,3.35,0,0,0,.84.84,2.46,2.46,0,0,0,1.29.3,1.23,1.23,0,0,0,.76-.3,6.06,6.06,0,0,0,.76-.76,4.08,4.08,0,0,0,.53-.8A1.9,1.9,0,0,0,276.13,130.79Zm8.81.19a5.61,5.61,0,0,0,.23-1.59,14,14,0,0,0-.12-1.64,8.47,8.47,0,0,0-.38-2q0-.16-.45-.42a1.92,1.92,0,0,0-.84-.31,1.13,1.13,0,0,0-.3-.53,1.7,1.7,0,0,0-.46-.38,2.43,2.43,0,0,0-.53-.23,1.19,1.19,0,0,0-.34-.07,1.29,1.29,0,0,0-.95.49,5.45,5.45,0,0,0-.84,1.22,8.73,8.73,0,0,0-.57,1.59,6.78,6.78,0,0,0-.19,1.52c0,.28,0,.7.08,1.26a7.16,7.16,0,0,0,.41,1.59,4.55,4.55,0,0,0,.95,1.41,2.31,2.31,0,0,0,1.68.61,2,2,0,0,0,1.1-.31,3,3,0,0,0,.91-.91A4.94,4.94,0,0,0,284.94,131Zm-1.6-3.46a6.14,6.14,0,0,1,.12,1.18,6.5,6.5,0,0,1-.08.76,5,5,0,0,1-.19,1,3.56,3.56,0,0,1-.42.95.77.77,0,0,1-.64.38.7.7,0,0,1-.61-.31,3.22,3.22,0,0,1-.38-.79,5.08,5.08,0,0,1-.15-.95c0-.36,0-.68,0-1s0-.57,0-.88a3.5,3.5,0,0,1,.15-.83,1.47,1.47,0,0,1,.42-.65.94.94,0,0,1,.72-.27l.09,0,.06,0a.77.77,0,0,0,.27,0,.38.38,0,0,0,.19,0A4.42,4.42,0,0,1,283.34,127.52Zm22.36,7a.84.84,0,0,0,.19-.53l-.76-.68c-.21-.21-.41-.42-.61-.65a2.58,2.58,0,0,1-.46-.72,8.12,8.12,0,0,1-.42-1.56c-.1-.71-.21-1.4-.34-2.09a12.48,12.48,0,0,0-.38-1.82c-.15-.53-.34-.8-.57-.8a2.53,2.53,0,0,1-.38,0l-.38,0c-.15,0-.36.29-.64.88s-.59,1.21-.92,2l-.91,2.28a10.74,10.74,0,0,1-.76,1.6,8.86,8.86,0,0,1-1-2c-.21-.69-.4-1.36-.57-2s-.35-1.37-.57-2a9.05,9.05,0,0,0-.95-2.13c-.13-.23-.27-.34-.42-.34a.53.53,0,0,0-.42.3,8.71,8.71,0,0,0-1,2.06,12.13,12.13,0,0,0-.6,2.47l-.42,3.11a2.49,2.49,0,0,0-.08.34.81.81,0,0,1-.07.35,4.67,4.67,0,0,1-.5-1.14c-.17-.64-.35-1.32-.53-2.06s-.33-1.45-.46-2.16a10.81,10.81,0,0,1-.19-1.6v-1a1.94,1.94,0,0,0,0-.35.78.78,0,0,0-.19-.53c-.1-.15-.33-.23-.68-.23a.93.93,0,0,0-.61.27c-.18.15-.27.27-.27.34a.33.33,0,0,0,0,.19.16.16,0,0,1,.08.15s0,.14,0,.35a4.88,4.88,0,0,1,0,.64c0,.28,0,.58,0,.91a12.33,12.33,0,0,0,.16,1.71c.1.66.24,1.36.41,2.09s.42,1.47.65,2.21a17.87,17.87,0,0,0,.8,2,9.68,9.68,0,0,0,.83,1.45,1.15,1.15,0,0,0,.84.53.91.91,0,0,0,.87-1c0-.53,0-1.15.08-1.86s.11-1.42.19-2.13.17-1.43.27-2.09a8.55,8.55,0,0,1,.41-1.56,7.16,7.16,0,0,1,.54,1.26c.17.5.35,1.05.53,1.63s.39,1.18.57,1.79.4,1.15.61,1.63a5.34,5.34,0,0,0,.64,1.18,1,1,0,0,0,.72.46,1.51,1.51,0,0,0,1.3-.76,8.26,8.26,0,0,0,.87-1.79c.23-.68.42-1.36.57-2a7.46,7.46,0,0,1,.49-1.41c0,.05.06.38.16,1a13.13,13.13,0,0,0,.57,2,9.12,9.12,0,0,0,1,1.9,1.63,1.63,0,0,0,1.36.84,1.78,1.78,0,0,0,.46-.08,3.47,3.47,0,0,0,.57-.19A1.53,1.53,0,0,0,305.7,134.55Zm13.84-.72a.67.67,0,0,0,0-.23.53.53,0,0,0-.19-.22.35.35,0,0,0-.23-.12,1.74,1.74,0,0,0-.57.27c-.28.15-.62.33-1,.53s-.8.35-1.25.53a3.74,3.74,0,0,1-1.22.23,4.24,4.24,0,0,1-1.56-.3,4.55,4.55,0,0,1-1.33-.84,5.06,5.06,0,0,1-.95-1.37,4.63,4.63,0,0,1-.34-1.78,7.11,7.11,0,0,1,.31-2.17,6.73,6.73,0,0,1,.76-1.75,4.57,4.57,0,0,1,.95-1.18,1.4,1.4,0,0,1,.87-.45c.56,0,.9.1,1,.3a1.34,1.34,0,0,1,.19.38,1.09,1.09,0,0,1-.5,1,5.62,5.62,0,0,1-1,.61,7.1,7.1,0,0,0-1.07.53,1,1,0,0,0-.45.84.94.94,0,0,0,.15.53.57.57,0,0,0,.42.19,3.2,3.2,0,0,0,1.14-.3,10.74,10.74,0,0,0,1.44-.84,7.07,7.07,0,0,0,1.22-1.14,1.86,1.86,0,0,0,.53-1.18,1.65,1.65,0,0,0-.31-.95,3,3,0,0,0-.83-.87,3.89,3.89,0,0,0-1.14-.61,3,3,0,0,0-1.22-.27,2.28,2.28,0,0,0-1.4.57,5.8,5.8,0,0,0-1.33,1.56,10.35,10.35,0,0,0-.95,2.28,9.58,9.58,0,0,0-.38,2.78,8.38,8.38,0,0,0,.41,2.73,6.78,6.78,0,0,0,1.07,1.94,4.63,4.63,0,0,0,1.48,1.18,4.16,4.16,0,0,0,1.71.38,7.7,7.7,0,0,0,2.17-.27,8.15,8.15,0,0,0,1.59-.61,4.71,4.71,0,0,0,1-.68,4.28,4.28,0,0,0,.49-.49A1.4,1.4,0,0,0,319.54,133.83Z"/></g></g></svg>